<svg xmlns="http://www.w3.org/2000/svg" viewBox="0 0 16 16" width="16" height="16" shape-rendering="crispEdges">
  <rect width="16" height="16" rx="4" ry="4" fill="#121926"/>
  <path fill="#ffbe3b" d="M1,6h3v1h-3z M5,6h1v1h-1z M9,6h1v1h-1z M11,6h1v1h-1z M14,6h1v1h-1z M2,7h1v1h-1z M5,7h2v1h-2z M9,7h1v1h-1z M11,7h1v1h-1z M13,7h1v1h-1z M2,8h1v1h-1z M5,8h1v1h-1z M7,8h1v1h-1z M9,8h1v1h-1z M11,8h2v1h-2z M2,9h1v1h-1z M5,9h1v1h-1z M8,9h2v1h-2z M11,9h1v1h-1z M13,9h1v1h-1z M1,10h3v1h-3z M5,10h1v1h-1z M9,10h1v1h-1z M11,10h1v1h-1z M14,10h1v1h-1z"/>
</svg>
